<svg width="15" height="15" viewBox="0 0 15 15" fill="none" xmlns="http://www.w3.org/2000/svg">
    <path d="M7.87028 14.7346C8.99957 14.7345 10.1114 14.4559 11.1073 13.9235C12.1032 13.3911 12.9525 12.6213 13.5798 11.6823C14.2072 10.7433 14.5933 9.66405 14.7039 8.54019C14.8146 7.41634 14.6463 6.28254 14.2142 5.23922C13.782 4.19589 13.0992 3.27525 12.2263 2.55883C11.3533 1.84242 10.3172 1.35233 9.20957 1.13199C8.10198 0.911646 6.95715 0.967847 5.87647 1.29561C4.79579 1.62338 3.81262 2.21259 3.01404 3.01107C2.0527 3.97117 1.39783 5.19493 1.13235 6.52741C0.866864 7.85988 1.0027 9.24118 1.52266 10.4964C2.04261 11.7517 2.92331 12.8244 4.05327 13.5789C5.18322 14.3333 6.51161 14.7355 7.87028 14.7346ZM3.71297 3.71165C4.53525 2.88921 5.58294 2.32909 6.72356 2.10212C7.86419 1.87514 9.0465 1.99152 10.121 2.43652C11.1955 2.88152 12.1138 3.63516 12.76 4.60213C13.4061 5.5691 13.751 6.70597 13.751 7.86896C13.751 9.03194 13.4061 10.1688 12.76 11.1358C12.1138 12.1027 11.1955 12.8564 10.121 13.3014C9.0465 13.7464 7.86419 13.8628 6.72356 13.6358C5.58294 13.4088 4.53525 12.8487 3.71297 12.0263C2.61214 10.9227 1.99393 9.42767 1.99393 7.86896C1.99393 6.31024 2.61214 4.81516 3.71297 3.71165Z" fill="#157DF1" stroke="#157DF1" stroke-width="0.5"/>
    <path d="M10.8324 7.96975H7.96089V4.33664H6.97184V8.9588H10.8324V7.96975Z" fill="#157DF1" stroke="#157DF1" stroke-width="0.5"/>
</svg>
