<svg width="24" height="24" viewBox="0 0 24 24" fill="none" xmlns="http://www.w3.org/2000/svg">
<rect x="10" width="4" height="3" fill="#157DF1"/>
<rect x="10" y="21" width="4" height="3" fill="#157DF1"/>
<rect x="3" y="10" width="4" height="3" transform="rotate(90 3 10)" fill="#157DF1"/>
<rect x="24" y="10" width="4" height="3" transform="rotate(90 24 10)" fill="#157DF1"/>
<rect width="4" height="3" transform="matrix(0.707113 0.707101 -0.707113 0.707101 19.071 2.10049)" fill="#157DF1"/>
<rect width="4" height="3" transform="matrix(0.707112 0.707101 -0.707112 0.707101 4.2218 16.9497)" fill="#157DF1"/>
<rect width="4" height="3" transform="matrix(-0.707113 0.707101 -0.707113 -0.707101 7.05029 4.22183)" fill="#157DF1"/>
<rect width="4" height="3" transform="matrix(-0.707113 0.707101 -0.707113 -0.707101 21.8995 19.0711)" fill="#157DF1"/>
<circle cx="12" cy="12" r="9" stroke="#157DF1" stroke-width="2"/>
<circle cx="12" cy="12" r="3" fill="#157DF1"/>
</svg>
