<svg width="173" height="32" viewBox="0 0 173 32" fill="none" xmlns="http://www.w3.org/2000/svg">
<path d="M58.4401 6.2H55.6801V23H65.2801V20.36H58.4401V6.2Z" fill="white"/>
<path d="M78.3775 18.104C78.4495 17.648 78.4735 17.288 78.4735 17.024C78.4735 15.272 77.8975 13.76 76.7695 12.536C75.6415 11.312 74.2015 10.688 72.4495 10.688C70.6015 10.688 69.0655 11.288 67.8895 12.512C66.7135 13.712 66.1135 15.2 66.1135 17C66.1135 18.824 66.7135 20.336 67.9135 21.536C69.1135 22.712 70.6975 23.312 72.6415 23.312C74.9695 23.312 76.7215 22.448 77.8975 20.696L75.7615 19.448C75.0655 20.432 74.0335 20.936 72.6655 20.936C70.6735 20.936 69.2095 19.928 68.8255 18.104H78.3775ZM68.8015 15.992C69.1615 14.168 70.5055 13.04 72.4255 13.04C74.1295 13.04 75.4975 14.048 75.8575 15.992H68.8015Z" fill="white"/>
<path d="M90.1879 12.704C89.2039 11.36 87.8119 10.688 85.9879 10.688C84.3319 10.688 82.9399 11.288 81.7639 12.512C80.5879 13.736 80.0119 15.224 80.0119 17C80.0119 18.752 80.5879 20.264 81.7639 21.488C82.9399 22.712 84.3319 23.312 85.9879 23.312C87.8119 23.312 89.2039 22.64 90.1879 21.272V23H92.7799V11H90.1879V12.704ZM83.6839 19.76C82.9639 19.016 82.6039 18.104 82.6039 17C82.6039 15.896 82.9639 14.984 83.6839 14.264C84.4039 13.52 85.3159 13.16 86.3959 13.16C87.4759 13.16 88.3879 13.52 89.1079 14.264C89.8279 14.984 90.1879 15.896 90.1879 17C90.1879 18.104 89.8279 19.016 89.1079 19.76C88.3879 20.48 87.4759 20.84 86.3959 20.84C85.3159 20.84 84.4039 20.48 83.6839 19.76Z" fill="white"/>
<path d="M102.113 10.688C100.409 10.688 99.1851 11.312 98.3931 12.536V11H95.8011V23H98.3931V16.568C98.3931 14.24 99.6171 13.112 101.441 13.112C103.097 13.112 104.129 14.096 104.129 15.896V23H106.721V15.632C106.721 12.56 104.873 10.688 102.113 10.688Z" fill="white"/>
<path d="M118.44 6.2H115.68V23H125.28V20.36H118.44V6.2Z" fill="white"/>
<path d="M132.449 23.312C134.225 23.312 135.713 22.712 136.937 21.488C138.161 20.264 138.785 18.776 138.785 17C138.785 15.224 138.161 13.736 136.937 12.512C135.713 11.288 134.225 10.688 132.449 10.688C130.697 10.688 129.185 11.288 127.961 12.512C126.737 13.736 126.113 15.224 126.113 17C126.113 18.776 126.737 20.264 127.961 21.488C129.185 22.712 130.697 23.312 132.449 23.312ZM129.785 19.712C129.065 18.992 128.705 18.08 128.705 17C128.705 15.92 129.065 15.008 129.785 14.288C130.505 13.568 131.393 13.208 132.449 13.208C133.505 13.208 134.393 13.568 135.113 14.288C135.833 15.008 136.193 15.92 136.193 17C136.193 18.08 135.833 18.992 135.113 19.712C134.393 20.432 133.505 20.792 132.449 20.792C131.393 20.792 130.505 20.432 129.785 19.712Z" fill="white"/>
<path d="M150.681 12.776C149.697 11.384 148.305 10.688 146.505 10.688C144.801 10.688 143.385 11.288 142.209 12.512C141.033 13.712 140.457 15.176 140.457 16.88C140.457 18.584 141.033 20.048 142.209 21.272C143.385 22.472 144.801 23.072 146.505 23.072C148.305 23.072 149.697 22.376 150.681 20.984V22.448C150.681 24.536 149.337 25.76 147.105 25.76C145.401 25.76 144.225 25.136 143.601 23.912L141.369 25.208C142.401 27.152 144.297 28.112 147.057 28.112C148.761 28.112 150.225 27.632 151.425 26.648C152.625 25.664 153.225 24.272 153.225 22.448V11H150.681V12.776ZM144.129 19.568C143.409 18.848 143.049 17.96 143.049 16.88C143.049 15.8 143.409 14.912 144.129 14.192C144.873 13.472 145.785 13.112 146.865 13.112C147.945 13.112 148.857 13.472 149.577 14.192C150.321 14.912 150.681 15.8 150.681 16.88C150.681 17.96 150.321 18.848 149.577 19.568C148.857 20.288 147.945 20.648 146.865 20.648C145.785 20.648 144.873 20.288 144.129 19.568Z" fill="white"/>
<path d="M158.694 8.72C159.366 8.048 159.366 7.04 158.718 6.392C158.07 5.72 157.014 5.72 156.366 6.392C155.718 7.04 155.718 8.048 156.366 8.72C157.038 9.368 158.046 9.368 158.694 8.72ZM158.838 23V11H156.246V23H158.838Z" fill="white"/>
<path d="M167.512 23.312C169.84 23.312 171.88 22.112 172.912 20.192L170.68 18.92C170.104 20.048 168.904 20.768 167.488 20.768C166.432 20.768 165.544 20.408 164.824 19.688C164.128 18.968 163.768 18.08 163.768 17C163.768 15.92 164.128 15.032 164.824 14.312C165.544 13.592 166.432 13.232 167.488 13.232C168.928 13.232 170.08 13.928 170.632 15.08L172.864 13.784C171.904 11.888 169.84 10.688 167.512 10.688C165.712 10.688 164.2 11.288 162.976 12.512C161.776 13.712 161.176 15.2 161.176 17C161.176 18.776 161.776 20.264 162.976 21.488C164.2 22.712 165.712 23.312 167.512 23.312Z" fill="white"/>
<path fill-rule="evenodd" clip-rule="evenodd" d="M2.78371 13.2163L16 26.4326L23.5923 18.8402L26.376 21.6239L16 32L0 16L2.78371 13.2163Z" fill="white"/>
<path fill-rule="evenodd" clip-rule="evenodd" d="M15.9999 0L31.9999 16L29.2162 18.7837L15.9999 5.56743L8.40762 13.1598L5.6239 10.376L15.9999 0Z" fill="white"/>
</svg>
