<svg width="30" height="24" viewBox="0 0 30 24" fill="none" xmlns="http://www.w3.org/2000/svg">
<path d="M14.7983 9.0036C12.2748 9.0036 10.2498 11.0598 10.2498 13.5522C10.2498 16.0757 12.3059 18.1007 14.7983 18.1007C17.3218 18.1007 19.3469 16.0445 19.3469 13.5522C19.3469 11.0286 17.3218 9.0036 14.7983 9.0036Z" fill="#C5DFFB"/>
<path d="M26.1697 3.80084H21.372L20.0012 1.05925C19.6896 0.405008 19.0354 0 18.3188 0H11.2779C10.5614 0 9.90712 0.405008 9.59557 1.05925L8.22478 3.80084H3.42699C1.52657 3.80084 0 5.32741 0 7.22783V20.4685C0 22.3689 1.52657 23.8955 3.42699 23.8955H26.1697C28.0702 23.8955 29.5967 22.3689 29.5967 20.4685V7.22783C29.5967 5.35857 28.0702 3.80084 26.1697 3.80084ZM14.7984 20.2192C11.1221 20.2192 8.10016 17.2284 8.10016 13.521C8.10016 9.81365 11.1221 6.85398 14.7984 6.85398C18.4746 6.85398 21.4966 9.84481 21.4966 13.5522C21.4966 17.2596 18.4746 20.2192 14.7984 20.2192Z" fill="#C5DFFB"/>
</svg>
