<svg width="23" height="23" viewBox="0 0 23 23" fill="none" xmlns="http://www.w3.org/2000/svg">
<path d="M8.625 0C7.82 0 7.0725 0.2875 6.555 0.805C6.0375 1.3225 5.75 2.07 5.75 2.875C5.75 3.68 6.2675 4.255 6.555 4.945C6.64125 5.1175 6.64125 5.405 6.64125 5.75H0V23H6.64125C6.64125 22.655 6.6125 22.3675 6.555 22.195C6.2675 21.505 5.75 20.93 5.75 20.125C5.75 19.32 6.0375 18.5725 6.555 18.055C7.0725 17.5375 7.82 17.25 8.625 17.25C9.43 17.25 10.1775 17.5375 10.695 18.055C11.2125 18.5725 11.5 19.32 11.5 20.125C11.5 20.93 10.9825 21.505 10.695 22.195C10.6088 22.3675 10.6088 22.655 10.6088 23H17.25V16.3587C17.595 16.3587 17.8825 16.3875 18.055 16.445C18.745 16.7325 19.32 17.25 20.125 17.25C20.93 17.25 21.6775 16.9625 22.195 16.445C22.7125 15.9275 23 15.18 23 14.375C23 13.57 22.7125 12.8225 22.195 12.305C21.6775 11.7875 20.93 11.5 20.125 11.5C19.32 11.5 18.745 12.0175 18.055 12.305C17.8825 12.3913 17.595 12.3912 17.25 12.3912V5.75H10.6088C10.6088 5.405 10.6375 5.1175 10.695 4.945C10.9825 4.255 11.5 3.68 11.5 2.875C11.5 2.07 11.2125 1.3225 10.695 0.805C10.1775 0.2875 9.43 0 8.625 0V0Z" fill="#FFFFFF"/>
</svg>
