<svg width="30" height="24" viewBox="0 0 30 24" fill="none" xmlns="http://www.w3.org/2000/svg">
    <path fill-rule="evenodd" clip-rule="evenodd" d="M22.7246 19.6214C22.0999 19.8054 21.4325 19.4824 21.2352 18.9036C21.0379 18.3248 21.386 17.709 22.0119 17.5261C25.0724 16.6359 26.6246 14.3507 26.6246 10.7332C26.6246 6.57738 22.9684 3.19715 18.4727 3.19715C14.5651 3.19715 11.2006 5.77168 10.4703 9.3186L10.2278 10.4982L8.97845 10.1694C8.57752 10.0641 8.17282 10.0109 7.7744 10.0109C5.34868 10.0109 3.37544 11.8353 3.37544 14.0764C3.37544 16.3187 5.34868 18.1431 7.7744 18.1431L8.01697 18.1269C8.68058 18.1037 9.23234 18.5598 9.26627 19.1653C9.30146 19.7718 8.79873 20.2881 8.14265 20.3205L8.06347 20.3263C7.96795 20.3333 7.87243 20.3391 7.7744 20.3391C4.03905 20.3391 1 17.5295 1 14.0764C1 10.6232 4.03905 7.81371 7.7744 7.81371C7.99057 7.81371 8.20675 7.82412 8.42293 7.8438C9.77152 3.81994 13.8261 1 18.4727 1C24.278 1 29 5.36651 29 10.7332C29 15.3544 26.8307 18.4279 22.7246 19.6214ZM14.2398 11.6866C14.2435 11.6831 14.2448 11.6774 14.2486 11.6739C14.4823 11.4586 14.7865 11.3521 15.0919 11.3521C15.3961 11.3521 15.7015 11.4586 15.934 11.6739C15.9365 11.6762 15.9365 11.6808 15.9403 11.6843L19.2194 14.7149C19.6832 15.1444 19.6832 15.8401 19.2194 16.2684C18.9869 16.4826 18.6827 16.5903 18.3786 16.5903C18.0744 16.5903 17.7715 16.4826 17.539 16.2684L16.2821 15.1062V22.0206C16.2821 22.6272 15.7505 23.1192 15.0932 23.1192C14.4371 23.1192 13.9054 22.6272 13.9054 22.0206V15.1016L12.6436 16.2684C12.4123 16.4826 12.1082 16.5903 11.804 16.5903C11.4998 16.5903 11.1957 16.4826 10.9644 16.2684C10.4994 15.8401 10.4994 15.1444 10.9644 14.7149L14.2398 11.6866Z" fill="#8ABEF8"/>
    <path d="M22.0119 17.5261L21.97 17.382L21.9699 17.3821L22.0119 17.5261ZM10.4703 9.3186L10.3234 9.28835L10.3234 9.28839L10.4703 9.3186ZM10.2278 10.4982L10.1896 10.6433L10.3428 10.6836L10.3747 10.5284L10.2278 10.4982ZM8.97845 10.1694L9.01663 10.0244L9.01657 10.0244L8.97845 10.1694ZM7.7744 18.1431V18.2934L7.7844 18.2927L7.7744 18.1431ZM8.01697 18.1269L8.01173 17.9769L8.00697 17.9772L8.01697 18.1269ZM9.26627 19.1653L9.11651 19.1736L9.11652 19.1739L9.26627 19.1653ZM8.14265 20.3205L8.13525 20.1707L8.13171 20.1709L8.14265 20.3205ZM8.06347 20.3263L8.07435 20.4759L8.07441 20.4759L8.06347 20.3263ZM8.42293 7.8438L8.40933 7.99319L8.52746 8.00394L8.56515 7.89147L8.42293 7.8438ZM14.2486 11.6739L14.1469 11.5636L14.2486 11.6739ZM15.934 11.6739L15.8321 11.7839L15.8324 11.7842L15.934 11.6739ZM15.9403 11.6843L16.0421 11.5741L16.0419 11.574L15.9403 11.6843ZM19.2194 14.7149L19.3213 14.6049L19.3212 14.6048L19.2194 14.7149ZM19.2194 16.2684L19.321 16.3788L19.3211 16.3786L19.2194 16.2684ZM17.539 16.2684L17.4371 16.3786L17.4374 16.3788L17.539 16.2684ZM16.2821 15.1062L16.384 14.9961L16.1321 14.7632V15.1062H16.2821ZM13.9054 15.1016H14.0554V14.7586L13.8036 14.9914L13.9054 15.1016ZM12.6436 16.2684L12.5417 16.1583L12.5416 16.1584L12.6436 16.2684ZM10.9644 16.2684L11.0663 16.1584L11.066 16.1581L10.9644 16.2684ZM10.9644 14.7149L11.0662 14.8251L11.0663 14.8251L10.9644 14.7149ZM22.6822 19.4775C22.127 19.6411 21.5461 19.3506 21.3772 18.8552L21.0932 18.952C21.319 19.6142 22.0728 19.9698 22.767 19.7652L22.6822 19.4775ZM21.3772 18.8552C21.2106 18.3667 21.5003 17.8319 22.054 17.6701L21.9699 17.3821C21.2718 17.5861 20.8651 18.283 21.0932 18.952L21.3772 18.8552ZM22.0538 17.6701C23.612 17.2169 24.7968 16.4047 25.59 15.2367C26.382 14.0703 26.7746 12.5627 26.7746 10.7332H26.4746C26.4746 12.5212 26.091 13.965 25.3418 15.0681C24.5939 16.1695 23.4723 16.9451 21.97 17.382L22.0538 17.6701ZM26.7746 10.7332C26.7746 6.48366 23.0399 3.04715 18.4727 3.04715V3.34715C22.8969 3.34715 26.4746 6.67109 26.4746 10.7332H26.7746ZM18.4727 3.04715C14.5021 3.04715 11.0696 5.66407 10.3234 9.28835L10.6172 9.34885C11.3315 5.87929 14.6282 3.34715 18.4727 3.34715V3.04715ZM10.3234 9.28839L10.0808 10.468L10.3747 10.5284L10.6173 9.34882L10.3234 9.28839ZM10.2659 10.3531L9.01663 10.0244L8.94028 10.3145L10.1896 10.6433L10.2659 10.3531ZM9.01657 10.0244C8.60368 9.91589 8.18617 9.86085 7.7744 9.86085V10.1609C8.15946 10.1609 8.55136 10.2123 8.94034 10.3145L9.01657 10.0244ZM7.7744 9.86085C5.27718 9.86085 3.22544 11.7415 3.22544 14.0764H3.52544C3.52544 11.929 5.42019 10.1609 7.7744 10.1609V9.86085ZM3.22544 14.0764C3.22544 16.4124 5.27715 18.2931 7.7744 18.2931V17.9931C5.42022 17.9931 3.52544 16.225 3.52544 14.0764H3.22544ZM7.7844 18.2927L8.02697 18.2765L8.00697 17.9772L7.7644 17.9934L7.7844 18.2927ZM8.0222 18.2768C8.61781 18.256 9.08786 18.6626 9.11651 19.1736L9.41604 19.1569C9.37681 18.457 8.74336 17.9514 8.01174 17.977L8.0222 18.2768ZM9.11652 19.1739C9.14624 19.6862 8.71963 20.1419 8.13525 20.1707L8.15005 20.4704C8.87782 20.4344 9.45668 19.8575 9.41602 19.1566L9.11652 19.1739ZM8.13171 20.1709L8.05253 20.1767L8.07441 20.4759L8.15359 20.4701L8.13171 20.1709ZM8.05259 20.1767C7.95795 20.1836 7.86682 20.1891 7.7744 20.1891V20.4891C7.87804 20.4891 7.97795 20.483 8.07435 20.4759L8.05259 20.1767ZM7.7744 20.1891C4.11058 20.1891 1.15 17.4358 1.15 14.0764H0.85C0.85 17.6233 3.96752 20.4891 7.7744 20.4891V20.1891ZM1.15 14.0764C1.15 10.7169 4.11058 7.96371 7.7744 7.96371V7.66371C3.96752 7.66371 0.85 10.5295 0.85 14.0764H1.15ZM7.7744 7.96371C7.98575 7.96371 8.19738 7.97389 8.40933 7.99319L8.43653 7.69442C8.21612 7.67436 7.9954 7.66371 7.7744 7.66371V7.96371ZM8.56515 7.89147C9.89149 3.93403 13.8848 1.15 18.4727 1.15V0.85C13.7674 0.85 9.65156 3.70586 8.2807 7.79614L8.56515 7.89147ZM18.4727 1.15C24.2065 1.15 28.85 5.46021 28.85 10.7332H29.15C29.15 5.27282 24.3496 0.85 18.4727 0.85V1.15ZM28.85 10.7332C28.85 13.0205 28.3133 14.9119 27.2795 16.3762C26.2465 17.8395 24.7083 18.8885 22.6827 19.4773L22.7664 19.7654C24.8469 19.1607 26.4465 18.0763 27.5246 16.5492C28.602 15.023 29.15 13.0671 29.15 10.7332H28.85ZM14.3414 11.797C14.3544 11.7849 14.3629 11.7731 14.3679 11.7655C14.3704 11.7617 14.3723 11.7583 14.3736 11.7561C14.3748 11.7541 14.3758 11.7522 14.376 11.7518C14.3764 11.751 14.376 11.7517 14.3755 11.7527C14.3749 11.7537 14.3736 11.7559 14.3718 11.7587C14.3683 11.7641 14.3613 11.774 14.3502 11.7842L14.1469 11.5636C14.1339 11.5756 14.1254 11.5874 14.1204 11.595C14.1179 11.5988 14.116 11.6022 14.1147 11.6044C14.1135 11.6064 14.1125 11.6083 14.1123 11.6087C14.1119 11.6095 14.1123 11.6088 14.1128 11.6078C14.1134 11.6068 14.1147 11.6046 14.1165 11.6018C14.12 11.5964 14.127 11.5866 14.1381 11.5763L14.3414 11.797ZM14.3502 11.7842C14.5539 11.5965 14.8209 11.5021 15.0919 11.5021V11.2021C14.7521 11.2021 14.4107 11.3206 14.1469 11.5636L14.3502 11.7842ZM15.0919 11.5021C15.3618 11.5021 15.6298 11.5966 15.8321 11.7839L16.0359 11.5638C15.7732 11.3205 15.4303 11.2021 15.0919 11.2021V11.5021ZM15.8324 11.7842C15.8147 11.768 15.8055 11.7513 15.8017 11.7438C15.7997 11.7399 15.7984 11.7368 15.798 11.7359C15.7978 11.7354 15.7976 11.735 15.7977 11.7352C15.7977 11.7352 15.7977 11.7352 15.7978 11.7353C15.7978 11.7354 15.7978 11.7355 15.7979 11.7356C15.798 11.7358 15.7981 11.7361 15.7982 11.7365C15.8004 11.7417 15.8115 11.7696 15.8387 11.7946L16.0419 11.574C16.0653 11.5955 16.0744 11.6194 16.0751 11.6209C16.0751 11.621 16.0752 11.6212 16.075 11.6207C16.0749 11.6205 16.0746 11.6196 16.0742 11.6187C16.0734 11.6169 16.0717 11.613 16.0693 11.6082C16.0647 11.599 16.0545 11.581 16.0356 11.5636L15.8324 11.7842ZM15.8385 11.7945L19.1176 14.8251L19.3212 14.6048L16.0421 11.5741L15.8385 11.7945ZM19.1175 14.825C19.5172 15.1952 19.517 15.7894 19.1176 16.1583L19.3211 16.3786C19.8493 15.8909 19.8491 15.0936 19.3213 14.6049L19.1175 14.825ZM19.1178 16.1581C18.915 16.3449 18.648 16.4403 18.3786 16.4403V16.7403C18.7175 16.7403 19.0587 16.6203 19.321 16.3788L19.1178 16.1581ZM18.3786 16.4403C18.1093 16.4403 17.8435 16.345 17.6406 16.1581L17.4374 16.3788C17.6995 16.6202 18.0395 16.7403 18.3786 16.7403V16.4403ZM17.6408 16.1583L16.384 14.9961L16.1803 15.2163L17.4371 16.3786L17.6408 16.1583ZM16.1321 15.1062V22.0206H16.4321V15.1062H16.1321ZM16.1321 22.0206C16.1321 22.5335 15.679 22.9692 15.0932 22.9692V23.2692C15.822 23.2692 16.4321 22.7209 16.4321 22.0206H16.1321ZM15.0932 22.9692C14.5087 22.9692 14.0554 22.5336 14.0554 22.0206H13.7554C13.7554 22.7208 14.3655 23.2692 15.0932 23.2692V22.9692ZM14.0554 22.0206V15.1016H13.7554V22.0206H14.0554ZM13.8036 14.9914L12.5417 16.1583L12.7454 16.3786L14.0073 15.2117L13.8036 14.9914ZM12.5416 16.1584C12.3403 16.3448 12.0735 16.4403 11.804 16.4403V16.7403C12.1428 16.7403 12.4843 16.6204 12.7455 16.3785L12.5416 16.1584ZM11.804 16.4403C11.5345 16.4403 11.2677 16.3448 11.0663 16.1584L10.8625 16.3785C11.1237 16.6204 11.4652 16.7403 11.804 16.7403V16.4403ZM11.066 16.1581C10.6656 15.7893 10.6654 15.1953 11.0662 14.8251L10.8627 14.6047C10.3334 15.0935 10.3332 15.891 10.8628 16.3788L11.066 16.1581ZM11.0663 14.8251L14.3416 11.7968L14.1379 11.5765L10.8626 14.6048L11.0663 14.8251Z" fill="white"/>
</svg>
